<svg width="22" height="22" viewBox="0 0 22 22" fill="none" xmlns="http://www.w3.org/2000/svg">
<path d="M10.9999 1.83334C5.93992 1.83334 1.83325 5.94001 1.83325 11C1.83325 16.06 5.93992 20.1667 10.9999 20.1667C16.0599 20.1667 20.1666 16.06 20.1666 11C20.1666 5.94001 16.0599 1.83334 10.9999 1.83334ZM15.2533 8.06668C15.1158 9.51501 14.5199 13.035 14.2174 14.6575C14.0891 15.345 13.8324 15.5742 13.5941 15.6017C13.0624 15.6475 12.6591 15.2533 12.1458 14.9142C11.3391 14.3825 10.8808 14.0525 10.1016 13.5392C9.19409 12.9433 9.78075 12.6133 10.3033 12.0817C10.4408 11.9442 12.7874 9.80834 12.8333 9.61584C12.8396 9.58669 12.8388 9.55642 12.8308 9.52766C12.8228 9.49891 12.8079 9.47254 12.7874 9.45084C12.7324 9.40501 12.6591 9.42334 12.5949 9.43251C12.5124 9.45084 11.2291 10.3033 8.72659 11.99C8.35992 12.2375 8.02992 12.3658 7.73658 12.3567C7.40658 12.3475 6.78325 12.1733 6.31575 12.0175C5.73825 11.8342 5.28909 11.7333 5.32575 11.4125C5.34408 11.2475 5.57325 11.0825 6.00409 10.9083C8.68075 9.74418 10.4591 8.97418 11.3483 8.60751C13.8966 7.54418 14.4191 7.36084 14.7674 7.36084C14.8408 7.36084 15.0149 7.37918 15.1249 7.47084C15.2166 7.54418 15.2441 7.64501 15.2533 7.71834C15.2441 7.77334 15.2624 7.93834 15.2533 8.06668Z" fill="#6347F9"/>
</svg>
