<svg width="22" height="22" viewBox="0 0 22 22" fill="none" xmlns="http://www.w3.org/2000/svg">
<path d="M9.16658 13.75L13.9241 11L9.16658 8.25001V13.75ZM19.7633 6.57251C19.8824 7.00334 19.9649 7.58084 20.0199 8.31418C20.0841 9.04751 20.1116 9.68001 20.1116 10.23L20.1666 11C20.1666 13.0075 20.0199 14.4833 19.7633 15.4275C19.5341 16.2525 19.0024 16.7842 18.1774 17.0133C17.7466 17.1325 16.9583 17.215 15.7483 17.27C14.5566 17.3342 13.4658 17.3617 12.4574 17.3617L10.9999 17.4167C7.15908 17.4167 4.76659 17.27 3.82242 17.0133C2.99742 16.7842 2.46575 16.2525 2.23659 15.4275C2.11742 14.9967 2.03492 14.4192 1.97992 13.6858C1.91575 12.9525 1.88825 12.32 1.88825 11.77L1.83325 11C1.83325 8.99251 1.97992 7.51668 2.23659 6.57251C2.46575 5.74751 2.99742 5.21584 3.82242 4.98668C4.25325 4.86751 5.04159 4.78501 6.25159 4.73001C7.44325 4.66584 8.53408 4.63834 9.54242 4.63834L10.9999 4.58334C14.8408 4.58334 17.2333 4.73001 18.1774 4.98668C19.0024 5.21584 19.5341 5.74751 19.7633 6.57251Z" fill="#6347F9"/>
</svg>
