<svg width="22" height="22" viewBox="0 0 22 22" fill="none" xmlns="http://www.w3.org/2000/svg">
<path d="M20.5883 5.49999C19.8825 5.82082 19.1216 6.03166 18.3333 6.13249C19.14 5.64666 19.7633 4.87666 20.0566 3.95082C19.2958 4.40916 18.4525 4.72999 17.5633 4.91332C16.8391 4.12499 15.8216 3.66666 14.6666 3.66666C12.5125 3.66666 10.7525 5.42666 10.7525 7.59916C10.7525 7.91082 10.7891 8.21332 10.8533 8.49749C7.58996 8.33249 4.68412 6.76499 2.74995 4.39082C2.41079 4.96832 2.21829 5.64666 2.21829 6.36166C2.21829 7.72749 2.90579 8.93749 3.96912 9.62499C3.31829 9.62499 2.71329 9.44166 2.18162 9.16666V9.19416C2.18162 11.1008 3.53829 12.6958 5.33495 13.0533C4.75812 13.2112 4.15254 13.2331 3.56579 13.1175C3.81476 13.8989 4.30236 14.5827 4.96005 15.0727C5.61774 15.5627 6.41245 15.8342 7.23245 15.8492C5.84245 16.9496 4.11945 17.5444 2.34662 17.5358C2.03495 17.5358 1.72329 17.5175 1.41162 17.4808C3.15329 18.5992 5.22495 19.25 7.44329 19.25C14.6666 19.25 18.6358 13.255 18.6358 8.05749C18.6358 7.88332 18.6358 7.71832 18.6266 7.54416C19.3966 6.99416 20.0566 6.29749 20.5883 5.49999Z" fill="#6347F9"/>
</svg>
