<svg width="22" height="22" viewBox="0 0 22 22" fill="none" xmlns="http://www.w3.org/2000/svg">
<path d="M13.9333 11C13.9333 11.5802 13.7612 12.1473 13.4389 12.6297C13.1166 13.1121 12.6585 13.488 12.1225 13.7101C11.5865 13.9321 10.9967 13.9902 10.4277 13.877C9.85864 13.7638 9.33597 13.4844 8.92574 13.0742C8.5155 12.664 8.23613 12.1413 8.12295 11.5723C8.00976 11.0033 8.06785 10.4135 8.28987 9.87747C8.51189 9.34148 8.88786 8.88335 9.37025 8.56103C9.85263 8.23871 10.4198 8.06668 10.9999 8.06668C11.7771 8.06909 12.5218 8.37892 13.0714 8.9285C13.621 9.47808 13.9308 10.2228 13.9333 11ZM20.1666 6.96668V15.0333C20.1666 16.3948 19.6258 17.7005 18.6631 18.6632C17.7004 19.6258 16.3947 20.1667 15.0333 20.1667H6.96659C5.60514 20.1667 4.29946 19.6258 3.33677 18.6632C2.37408 17.7005 1.83325 16.3948 1.83325 15.0333V6.96668C1.83325 5.60523 2.37408 4.29955 3.33677 3.33686C4.29946 2.37418 5.60514 1.83334 6.96659 1.83334H15.0333C16.3947 1.83334 17.7004 2.37418 18.6631 3.33686C19.6258 4.29955 20.1666 5.60523 20.1666 6.96668ZM15.3999 11C15.3999 10.1298 15.1419 9.27908 14.6584 8.5555C14.1749 7.83192 13.4877 7.26797 12.6837 6.93494C11.8797 6.60191 10.995 6.51478 10.1415 6.68456C9.288 6.85433 8.504 7.27339 7.88865 7.88874C7.2733 8.50409 6.85424 9.2881 6.68446 10.1416C6.51469 10.9951 6.60182 11.8798 6.93485 12.6838C7.26787 13.4878 7.83183 14.175 8.55541 14.6585C9.27899 15.142 10.1297 15.4 10.9999 15.4C12.1669 15.4 13.286 14.9364 14.1112 14.1113C14.9363 13.2861 15.3999 12.167 15.3999 11ZM16.8666 6.23334C16.8666 6.01578 16.8021 5.80311 16.6812 5.62222C16.5603 5.44132 16.3885 5.30033 16.1875 5.21708C15.9865 5.13382 15.7654 5.11204 15.552 5.15448C15.3386 5.19692 15.1426 5.30169 14.9888 5.45553C14.8349 5.60936 14.7302 5.80536 14.6877 6.01874C14.6453 6.23212 14.6671 6.4533 14.7503 6.65429C14.8336 6.85529 14.9746 7.02709 15.1555 7.14796C15.3364 7.26883 15.549 7.33334 15.7666 7.33334C16.0583 7.33334 16.3381 7.21745 16.5444 7.01116C16.7507 6.80487 16.8666 6.52508 16.8666 6.23334Z" fill="#6347F9"/>
</svg>
